<svg width="85" height="52" viewBox="0 0 85 52" fill="none" xmlns="http://www.w3.org/2000/svg">
<path d="M6.73648 5.97656H11.9748L17.5294 36H12.924L12.0978 30.6211H6.61343L5.82242 36H1.19937L6.73648 5.97656ZM11.5705 27.1934L9.46109 12.2344H9.26773L7.14078 27.1934H11.5705ZM20.1662 11.7949H23.5939L23.9982 14.3789V14.3965C24.3498 13.8457 24.7248 13.3887 25.1232 13.0254C25.5334 12.6504 25.9552 12.3516 26.3888 12.1289C26.8224 11.9062 27.2619 11.748 27.7072 11.6543C28.1642 11.5605 28.6154 11.5137 29.0607 11.5137C30.4787 11.5137 31.5685 12.0117 32.3302 13.0078C33.1037 13.9922 33.4904 15.4746 33.4904 17.4551V36H29.0431V17.6133C29.0431 16.5469 28.8791 15.8086 28.5509 15.3984C28.2228 14.9766 27.7423 14.7656 27.1095 14.7656C26.6642 14.7656 26.2189 14.9121 25.7736 15.2051C25.34 15.498 24.9533 15.9023 24.6134 16.418V36H20.1662V11.7949ZM38.6056 14.959H36.7248V11.7949H38.9923L39.8888 5.51953H43.0529V11.7949H46.9201V14.959H43.0529V30.3574C43.0529 30.8848 43.0998 31.3125 43.1935 31.6406C43.299 31.957 43.4396 32.209 43.6154 32.3965C43.7912 32.5723 43.9962 32.6895 44.2306 32.748C44.465 32.8066 44.7111 32.8359 44.9689 32.8359C45.4025 32.8359 45.7834 32.7832 46.1115 32.6777C46.4513 32.5723 46.7736 32.4258 47.0783 32.2383V34.6992C46.8205 35.0156 46.5392 35.2734 46.2345 35.4727C45.9416 35.6719 45.6369 35.8359 45.3205 35.9648C45.0041 36.082 44.6818 36.1641 44.3537 36.2109C44.0255 36.2578 43.7033 36.2812 43.3869 36.2812C42.7658 36.2812 42.1681 36.1992 41.5939 36.0352C41.0197 35.8711 40.5099 35.5605 40.0646 35.1035C39.6193 34.6348 39.2619 33.9902 38.9923 33.1699C38.7345 32.3496 38.6056 31.2832 38.6056 29.9707V14.959ZM53.3185 36.2637C52.5685 36.2637 51.9005 36.1172 51.3146 35.8242C50.7404 35.5195 50.2541 35.1094 49.8556 34.5938C49.4572 34.0781 49.1525 33.4688 48.9416 32.7656C48.7423 32.0508 48.6427 31.2773 48.6427 30.4453C48.6427 29.4492 48.7658 28.5645 49.0119 27.791C49.258 27.0176 49.6154 26.3203 50.0841 25.6992C50.5646 25.0781 51.1564 24.5156 51.8595 24.0117C52.5627 23.4961 53.3771 23.0098 54.3029 22.5527C54.7482 22.3301 55.2462 22.1074 55.797 21.8848C56.3595 21.6504 56.8576 21.4512 57.2912 21.2871V18.0879C57.2912 17.6191 57.2736 17.1855 57.2384 16.7871C57.2033 16.377 57.1154 16.0254 56.9748 15.7324C56.8459 15.4277 56.6466 15.1934 56.3771 15.0293C56.1076 14.8535 55.7384 14.7656 55.2697 14.7656C54.9533 14.7656 54.6427 14.8242 54.338 14.9414C54.0451 15.0586 53.7814 15.2578 53.547 15.5391C53.3244 15.8203 53.1427 16.1953 53.0021 16.6641C52.8732 17.1328 52.8087 17.7129 52.8087 18.4043V19.459H49.4162C49.3107 19.002 49.2287 18.5859 49.1701 18.2109C49.1232 17.8242 49.0998 17.4434 49.0998 17.0684C49.0998 16.166 49.2521 15.3691 49.5568 14.6777C49.8732 13.9863 50.3068 13.4063 50.8576 12.9375C51.4201 12.4687 52.088 12.1172 52.8615 11.8828C53.6349 11.6367 54.4845 11.5137 55.4103 11.5137C56.6173 11.5137 57.6193 11.6484 58.4162 11.918C59.213 12.1758 59.8459 12.5684 60.3146 13.0957C60.7951 13.623 61.1291 14.2852 61.3166 15.082C61.5158 15.8789 61.6154 16.8105 61.6154 17.877V36H58.3107L57.9943 33.9258C57.5138 34.6172 56.8693 35.1797 56.0607 35.6133C55.2638 36.0469 54.3498 36.2637 53.3185 36.2637ZM55.2873 32.8359C55.6623 32.8359 56.0255 32.7422 56.3771 32.5547C56.7404 32.3555 57.0451 32.1152 57.2912 31.834V24.2578C57.0568 24.3516 56.7931 24.4629 56.5002 24.5918C56.2072 24.7207 55.8908 24.8906 55.5509 25.1016C55.2345 25.3008 54.924 25.541 54.6193 25.8223C54.3146 26.1035 54.0392 26.4375 53.7931 26.8242C53.5587 27.2109 53.3654 27.6504 53.213 28.1426C53.0724 28.623 53.0021 29.1621 53.0021 29.7598C53.0021 30.6855 53.1837 31.4297 53.547 31.9922C53.9103 32.5547 54.4904 32.8359 55.2873 32.8359ZM66.2209 11.7949H69.4728L69.8595 14.2559C70.3517 13.3418 70.9142 12.6562 71.547 12.1992C72.1916 11.7422 72.8478 11.5137 73.5158 11.5137C74.7931 11.5137 75.7365 11.9062 76.3459 12.6914C76.9552 13.4766 77.2599 14.6543 77.2599 16.2246C77.2599 16.4238 77.2423 16.6641 77.2072 16.9453C77.1837 17.2148 77.1427 17.502 77.0841 17.8066C77.0373 18.0996 76.9728 18.3984 76.8908 18.7031C76.8205 18.9961 76.7443 19.2656 76.6623 19.5117H73.5685V17.2617C73.5685 16.7695 73.5334 16.3652 73.463 16.0488C73.4044 15.7324 73.3224 15.4805 73.2169 15.293C73.1115 15.0938 72.9884 14.959 72.8478 14.8887C72.7072 14.8066 72.5548 14.7656 72.3908 14.7656C72.0392 14.7656 71.7111 14.8828 71.4064 15.1172C71.1134 15.3398 70.8673 15.6563 70.6681 16.0664V36H66.2209V11.7949Z" fill="black"/>
<path d="M10.519 48.3335V49H5.72656V48.3335H10.519ZM5.95508 39.7578V49H5.17432V39.7578H5.95508ZM16.0288 47.7686V44.2266C16.0288 43.9007 15.9611 43.6193 15.8257 43.3823C15.6903 43.1453 15.4914 42.9634 15.229 42.8364C14.9666 42.7095 14.6429 42.646 14.2578 42.646C13.9023 42.646 13.585 42.7095 13.3057 42.8364C13.0306 42.9591 12.8127 43.1263 12.6519 43.3379C12.4953 43.5452 12.417 43.7759 12.417 44.0298L11.6553 44.0234C11.6553 43.7653 11.7188 43.5156 11.8457 43.2744C11.9727 43.0332 12.1525 42.8174 12.3853 42.627C12.618 42.4365 12.8952 42.2863 13.2168 42.1763C13.5426 42.062 13.9002 42.0049 14.2896 42.0049C14.7804 42.0049 15.2121 42.0874 15.5845 42.2524C15.9611 42.4175 16.2552 42.665 16.4668 42.9951C16.6784 43.3252 16.7842 43.7399 16.7842 44.2393V47.5591C16.7842 47.7961 16.8011 48.0415 16.835 48.2954C16.873 48.5493 16.9259 48.7588 16.9937 48.9238V49H16.1875C16.1367 48.8477 16.0965 48.6572 16.0669 48.4287C16.0415 48.196 16.0288 47.9759 16.0288 47.7686ZM16.2065 45.001L16.2192 45.585H14.7275C14.3382 45.585 13.9891 45.6209 13.6802 45.6929C13.3755 45.7606 13.1174 45.8621 12.9058 45.9976C12.6942 46.1287 12.5312 46.2874 12.417 46.4736C12.307 46.6598 12.252 46.8714 12.252 47.1084C12.252 47.3538 12.3133 47.5781 12.436 47.7812C12.563 47.9844 12.7407 48.1473 12.9692 48.27C13.202 48.3885 13.4771 48.4478 13.7944 48.4478C14.2176 48.4478 14.59 48.3695 14.9116 48.2129C15.2375 48.0563 15.5062 47.8511 15.7178 47.5972C15.9294 47.3433 16.0711 47.0661 16.1431 46.7656L16.4731 47.2036C16.4181 47.4152 16.3166 47.6331 16.1685 47.8574C16.0246 48.0775 15.8363 48.2848 15.6035 48.4795C15.3708 48.6699 15.0957 48.8265 14.7783 48.9492C14.4652 49.0677 14.1097 49.127 13.7119 49.127C13.2633 49.127 12.8719 49.0423 12.5376 48.873C12.2075 48.7038 11.9494 48.4731 11.7632 48.1812C11.5812 47.8849 11.4902 47.5506 11.4902 47.1782C11.4902 46.8397 11.5622 46.5371 11.7061 46.2705C11.8499 45.9997 12.0573 45.7712 12.3281 45.585C12.6032 45.3945 12.9333 45.2507 13.3184 45.1533C13.7077 45.0518 14.1436 45.001 14.626 45.001H16.2065ZM23.2207 47.4131V42.1318H23.9824V49H23.2524L23.2207 47.4131ZM23.3604 46.1436L23.7539 46.1309C23.7539 46.5625 23.7031 46.9603 23.6016 47.3242C23.5 47.6882 23.3413 48.0055 23.1255 48.2764C22.9097 48.5472 22.6304 48.7567 22.2876 48.9048C21.9448 49.0529 21.5322 49.127 21.0498 49.127C20.7155 49.127 20.4087 49.0804 20.1294 48.9873C19.8543 48.89 19.6174 48.7376 19.4185 48.5303C19.2196 48.3229 19.0651 48.0542 18.9551 47.7241C18.8493 47.394 18.7964 46.9941 18.7964 46.5244V42.1318H19.5518V46.5371C19.5518 46.9053 19.592 47.2121 19.6724 47.4575C19.757 47.703 19.8713 47.8997 20.0151 48.0479C20.1632 48.196 20.3325 48.3018 20.5229 48.3652C20.7134 48.4287 20.9186 48.4604 21.1387 48.4604C21.6973 48.4604 22.1374 48.3525 22.459 48.1367C22.7848 47.9209 23.0155 47.6374 23.1509 47.2861C23.2905 46.9307 23.3604 46.5498 23.3604 46.1436ZM26.7246 43.5981V49H25.9692V42.1318H26.6929L26.7246 43.5981ZM26.5532 45.1406L26.2168 44.9502C26.2422 44.5439 26.3247 44.1631 26.4644 43.8076C26.604 43.4521 26.7923 43.139 27.0293 42.8682C27.2705 42.5973 27.5519 42.3857 27.8735 42.2334C28.1994 42.0811 28.5591 42.0049 28.9526 42.0049C29.2954 42.0049 29.6022 42.0514 29.873 42.1445C30.1439 42.2376 30.3745 42.3857 30.5649 42.5889C30.7554 42.792 30.8993 43.0522 30.9966 43.3696C31.0981 43.687 31.1489 44.0742 31.1489 44.5312V49H30.3872V44.5249C30.3872 44.0509 30.3216 43.6807 30.1904 43.4141C30.0592 43.1432 29.873 42.9507 29.6318 42.8364C29.3906 42.7222 29.105 42.665 28.7749 42.665C28.411 42.665 28.0915 42.7454 27.8164 42.9062C27.5456 43.0628 27.3171 43.2681 27.1309 43.522C26.9489 43.7716 26.8092 44.0404 26.7119 44.3281C26.6146 44.6117 26.5617 44.8825 26.5532 45.1406ZM37.5791 47.667V39.25H38.3408V49H37.6299L37.5791 47.667ZM32.812 45.6357V45.5024C32.812 44.9692 32.8734 44.4889 32.9961 44.0615C33.1188 43.6299 33.2944 43.2617 33.5229 42.957C33.7557 42.6481 34.035 42.4132 34.3608 42.2524C34.6867 42.0874 35.0549 42.0049 35.4653 42.0049C35.8674 42.0049 36.2228 42.0705 36.5317 42.2017C36.8407 42.3328 37.1051 42.5212 37.3252 42.7666C37.5495 43.012 37.7293 43.304 37.8647 43.6426C38.0044 43.9811 38.106 44.3577 38.1694 44.7725V46.4673C38.1187 46.8566 38.0256 47.2142 37.8901 47.54C37.7547 47.8617 37.5749 48.1431 37.3506 48.3843C37.1263 48.6213 36.8555 48.8053 36.5381 48.9365C36.2249 49.0635 35.8631 49.127 35.4526 49.127C35.0464 49.127 34.6803 49.0423 34.3545 48.873C34.0286 48.7038 33.7515 48.4647 33.5229 48.1558C33.2944 47.8426 33.1188 47.4723 32.9961 47.0449C32.8734 46.6175 32.812 46.1478 32.812 45.6357ZM33.5737 45.5024V45.6357C33.5737 46.0378 33.6139 46.4102 33.6943 46.7529C33.7747 47.0957 33.8975 47.394 34.0625 47.6479C34.2275 47.9019 34.437 48.1007 34.6909 48.2446C34.9448 48.3885 35.2453 48.4604 35.5923 48.4604C36.0282 48.4604 36.3942 48.3779 36.6904 48.2129C36.9867 48.0436 37.2236 47.8215 37.4014 47.5464C37.5791 47.2671 37.7082 46.9624 37.7886 46.6323V44.6582C37.7378 44.4339 37.6637 44.2054 37.5664 43.9727C37.4691 43.7399 37.3358 43.5262 37.1665 43.3315C37.0015 43.1326 36.7899 42.974 36.5317 42.8555C36.2778 42.7327 35.9689 42.6714 35.605 42.6714C35.2537 42.6714 34.9512 42.7433 34.6973 42.8872C34.4434 43.0311 34.2318 43.2321 34.0625 43.4902C33.8975 43.7441 33.7747 44.0425 33.6943 44.3853C33.6139 44.728 33.5737 45.1004 33.5737 45.5024ZM41.0957 43.2681V49H40.3403V42.1318H41.0767L41.0957 43.2681ZM43.5269 42.0811L43.5078 42.7793C43.4232 42.7666 43.3407 42.756 43.2603 42.7476C43.1799 42.7391 43.0931 42.7349 43 42.7349C42.6699 42.7349 42.38 42.7962 42.1304 42.9189C41.8849 43.0374 41.6776 43.2046 41.5083 43.4204C41.339 43.632 41.21 43.8817 41.1211 44.1694C41.0322 44.453 40.9814 44.7576 40.9688 45.0835L40.6895 45.1914C40.6895 44.7428 40.736 44.326 40.8291 43.9409C40.9222 43.5558 41.064 43.2194 41.2544 42.9316C41.4491 42.6396 41.6924 42.4132 41.9844 42.2524C42.2806 42.0874 42.6276 42.0049 43.0254 42.0049C43.1227 42.0049 43.2179 42.0133 43.311 42.0303C43.4084 42.043 43.4803 42.0599 43.5269 42.0811ZM46.8721 48.3145L49.0112 42.1318H49.8301L46.9229 50.1045C46.8636 50.2611 46.7874 50.4346 46.6943 50.625C46.6055 50.8154 46.487 50.9974 46.3389 51.1709C46.195 51.3486 46.013 51.4925 45.793 51.6025C45.5771 51.7168 45.3127 51.7739 44.9995 51.7739C44.9191 51.7739 44.8154 51.7633 44.6885 51.7422C44.5658 51.7253 44.4769 51.7083 44.4219 51.6914L44.4155 51.0503C44.4621 51.063 44.5298 51.0736 44.6187 51.082C44.7075 51.0905 44.7689 51.0947 44.8027 51.0947C45.0778 51.0947 45.3084 51.0482 45.4946 50.9551C45.6851 50.862 45.8438 50.7223 45.9707 50.5361C46.0977 50.3542 46.2098 50.1257 46.3071 49.8506L46.8721 48.3145ZM44.8726 42.1318L47.0625 48.0288L47.2656 48.8223L46.7134 49.1333L44.0474 42.1318H44.8726Z" fill="#77F994"/>
</svg>
