<svg width="125" height="60" viewBox="0 0 125 60" fill="none" xmlns="http://www.w3.org/2000/svg">
<path d="M23.0769 17.6627H28.2051V19.2604H23.0769C22.9069 19.2604 22.7439 19.1762 22.6236 19.0264C22.5034 18.8766 22.4359 18.6734 22.4359 18.4615C22.4359 18.2497 22.5034 18.0465 22.6236 17.8967C22.7439 17.7469 22.9069 17.6627 23.0769 17.6627Z" fill="#382A26"/>
<path d="M5.76923 25.6509H23.7179V44.8225H5.76923V25.6509Z" fill="#B38B63"/>
<path d="M22.4359 25.6509V36.8343C22.4359 38.1055 22.0307 39.3246 21.3094 40.2234C20.5881 41.1222 19.6098 41.6272 18.5897 41.6272H5.76923V44.8225H23.7179V25.6509H22.4359Z" fill="#A97C50"/>
<path d="M27.5641 19.2603V24.0532C27.5641 25.3244 27.9693 26.5435 28.6906 27.4423C29.4119 28.3412 30.3902 28.8461 31.4103 28.8461V32.0414H35.2564V28.8461C35.6416 28.6061 35.9656 28.2371 36.1921 27.7806C36.4185 27.324 36.5385 26.7979 36.5385 26.2612V19.2603H27.5641Z" fill="#FFBCAB"/>
<path d="M35.2564 32.0414H30.1282C29.1081 32.0414 28.1298 32.5464 27.4086 33.4452C26.6873 34.3441 26.282 35.5632 26.282 36.8343V54.4083H39.1026V36.8343C39.1026 35.5632 38.6973 34.3441 37.976 33.4452C37.2548 32.5464 36.2765 32.0414 35.2564 32.0414Z" fill="#2AD846"/>
<path d="M35.2564 43.2249V38.432C35.2564 37.5845 34.9863 36.7718 34.5054 36.1726C34.0245 35.5733 33.3723 35.2367 32.6923 35.2367C32.0123 35.2367 31.3601 35.5733 30.8792 36.1726C30.3983 36.7718 30.1282 37.5845 30.1282 38.432V41.6272C30.1282 42.0509 29.9931 42.4573 29.7527 42.7569C29.5123 43.0565 29.1862 43.2249 28.8461 43.2249H21.1538V49.6154H30.1282C31.4883 49.6154 32.7927 48.9421 33.7544 47.7436C34.7161 46.5452 35.2564 44.9197 35.2564 43.2249Z" fill="#382A26"/>
<path d="M21.1538 42.426H17.3077V44.8225V48.0177V50.4142H21.1538V49.6154V43.2248V42.426Z" fill="#2AD846"/>
<path d="M37.1795 19.2604V17.6627C37.1795 15.9678 36.6392 14.3424 35.6775 13.1439C34.7157 11.9455 33.4114 11.2722 32.0513 11.2722C30.6912 11.2722 29.3868 11.9455 28.4251 13.1439C27.4634 14.3424 26.9231 15.9678 26.9231 17.6627V19.2604H37.1795Z" fill="#382A26"/>
<path d="M14.7436 32.0414L16.6667 33.639V25.6509H12.8205V33.639L14.7436 32.0414Z" fill="#2AD846"/>
<path d="M12.1795 44.8225C12.1795 45.6699 12.4496 46.4826 12.9305 47.0819C13.4114 47.6811 14.0635 48.0177 14.7436 48.0177H17.3077V44.8225H12.1795Z" fill="#FFBCAB"/>
<path d="M26.282 54.4083H39.1026V57.6035H26.282V54.4083Z" fill="#382A26"/>
<path d="M46.7365 5.97656H51.9748L57.5294 36H52.924L52.0978 30.6211H46.6134L45.8224 36H41.1994L46.7365 5.97656ZM51.5705 27.1934L49.4611 12.2344H49.2677L47.1408 27.1934H51.5705ZM60.1662 11.7949H63.5939L63.9982 14.3789V14.3965C64.3498 13.8457 64.7248 13.3887 65.1232 13.0254C65.5334 12.6504 65.9552 12.3516 66.3888 12.1289C66.8224 11.9062 67.2619 11.748 67.7072 11.6543C68.1642 11.5605 68.6154 11.5137 69.0607 11.5137C70.4787 11.5137 71.5685 12.0117 72.3302 13.0078C73.1037 13.9922 73.4904 15.4746 73.4904 17.4551V36H69.0431V17.6133C69.0431 16.5469 68.8791 15.8086 68.5509 15.3984C68.2228 14.9766 67.7423 14.7656 67.1095 14.7656C66.6642 14.7656 66.2189 14.9121 65.7736 15.2051C65.34 15.498 64.9533 15.9023 64.6134 16.418V36H60.1662V11.7949ZM78.6056 14.959H76.7248V11.7949H78.9923L79.8888 5.51953H83.0529V11.7949H86.9201V14.959H83.0529V30.3574C83.0529 30.8848 83.0998 31.3125 83.1935 31.6406C83.299 31.957 83.4396 32.209 83.6154 32.3965C83.7912 32.5723 83.9962 32.6895 84.2306 32.748C84.465 32.8066 84.7111 32.8359 84.9689 32.8359C85.4025 32.8359 85.7834 32.7832 86.1115 32.6777C86.4513 32.5723 86.7736 32.4258 87.0783 32.2383V34.6992C86.8205 35.0156 86.5392 35.2734 86.2345 35.4727C85.9416 35.6719 85.6369 35.8359 85.3205 35.9648C85.0041 36.082 84.6818 36.1641 84.3537 36.2109C84.0255 36.2578 83.7033 36.2812 83.3869 36.2812C82.7658 36.2812 82.1681 36.1992 81.5939 36.0352C81.0197 35.8711 80.5099 35.5605 80.0646 35.1035C79.6193 34.6348 79.2619 33.9902 78.9923 33.1699C78.7345 32.3496 78.6056 31.2832 78.6056 29.9707V14.959ZM93.3185 36.2637C92.5685 36.2637 91.9005 36.1172 91.3146 35.8242C90.7404 35.5195 90.2541 35.1094 89.8556 34.5938C89.4572 34.0781 89.1525 33.4688 88.9416 32.7656C88.7423 32.0508 88.6427 31.2773 88.6427 30.4453C88.6427 29.4492 88.7658 28.5645 89.0119 27.791C89.258 27.0176 89.6154 26.3203 90.0841 25.6992C90.5646 25.0781 91.1564 24.5156 91.8595 24.0117C92.5627 23.4961 93.3771 23.0098 94.3029 22.5527C94.7482 22.3301 95.2462 22.1074 95.797 21.8848C96.3595 21.6504 96.8576 21.4512 97.2912 21.2871V18.0879C97.2912 17.6191 97.2736 17.1855 97.2384 16.7871C97.2033 16.377 97.1154 16.0254 96.9748 15.7324C96.8459 15.4277 96.6466 15.1934 96.3771 15.0293C96.1076 14.8535 95.7384 14.7656 95.2697 14.7656C94.9533 14.7656 94.6427 14.8242 94.338 14.9414C94.0451 15.0586 93.7814 15.2578 93.547 15.5391C93.3244 15.8203 93.1427 16.1953 93.0021 16.6641C92.8732 17.1328 92.8087 17.7129 92.8087 18.4043V19.459H89.4162C89.3107 19.002 89.2287 18.5859 89.1701 18.2109C89.1232 17.8242 89.0998 17.4434 89.0998 17.0684C89.0998 16.166 89.2521 15.3691 89.5568 14.6777C89.8732 13.9863 90.3068 13.4063 90.8576 12.9375C91.4201 12.4687 92.088 12.1172 92.8615 11.8828C93.6349 11.6367 94.4845 11.5137 95.4103 11.5137C96.6173 11.5137 97.6193 11.6484 98.4162 11.918C99.213 12.1758 99.8459 12.5684 100.315 13.0957C100.795 13.623 101.129 14.2852 101.317 15.082C101.516 15.8789 101.615 16.8105 101.615 17.877V36H98.3107L97.9943 33.9258C97.5138 34.6172 96.8693 35.1797 96.0607 35.6133C95.2638 36.0469 94.3498 36.2637 93.3185 36.2637ZM95.2873 32.8359C95.6623 32.8359 96.0255 32.7422 96.3771 32.5547C96.7404 32.3555 97.0451 32.1152 97.2912 31.834V24.2578C97.0568 24.3516 96.7931 24.4629 96.5002 24.5918C96.2072 24.7207 95.8908 24.8906 95.5509 25.1016C95.2345 25.3008 94.924 25.541 94.6193 25.8223C94.3146 26.1035 94.0392 26.4375 93.7931 26.8242C93.5587 27.2109 93.3654 27.6504 93.213 28.1426C93.0724 28.623 93.0021 29.1621 93.0021 29.7598C93.0021 30.6855 93.1837 31.4297 93.547 31.9922C93.9103 32.5547 94.4904 32.8359 95.2873 32.8359ZM106.221 11.7949H109.473L109.86 14.2559C110.352 13.3418 110.914 12.6562 111.547 12.1992C112.192 11.7422 112.848 11.5137 113.516 11.5137C114.793 11.5137 115.736 11.9062 116.346 12.6914C116.955 13.4766 117.26 14.6543 117.26 16.2246C117.26 16.4238 117.242 16.6641 117.207 16.9453C117.184 17.2148 117.143 17.502 117.084 17.8066C117.037 18.0996 116.973 18.3984 116.891 18.7031C116.82 18.9961 116.744 19.2656 116.662 19.5117H113.569V17.2617C113.569 16.7695 113.533 16.3652 113.463 16.0488C113.404 15.7324 113.322 15.4805 113.217 15.293C113.111 15.0938 112.988 14.959 112.848 14.8887C112.707 14.8066 112.555 14.7656 112.391 14.7656C112.039 14.7656 111.711 14.8828 111.406 15.1172C111.113 15.3398 110.867 15.6563 110.668 16.0664V36H106.221V11.7949Z" fill="black"/>
<path d="M45.9551 48.3398H50.519V49H45.168V39.7578H45.9551V48.3398ZM56.1812 49C56.105 48.7842 56.0563 48.4647 56.0352 48.0415C55.7686 48.3885 55.4279 48.6572 55.0132 48.8477C54.6027 49.0339 54.1668 49.127 53.7056 49.127C53.0454 49.127 52.5101 48.9429 52.0996 48.5747C51.6934 48.2065 51.4902 47.741 51.4902 47.1782C51.4902 46.5096 51.7674 45.9806 52.3218 45.5913C52.8804 45.202 53.6569 45.0073 54.6514 45.0073H56.0288V44.2266C56.0288 43.7357 55.8765 43.3506 55.5718 43.0713C55.2713 42.7878 54.8312 42.646 54.2515 42.646C53.7225 42.646 53.2845 42.7814 52.9375 43.0522C52.5905 43.3231 52.417 43.6489 52.417 44.0298L51.6553 44.0234C51.6553 43.4775 51.9092 43.0057 52.417 42.6079C52.9248 42.2059 53.549 42.0049 54.2896 42.0049C55.0555 42.0049 55.6585 42.1974 56.0986 42.5825C56.543 42.9634 56.7715 43.4966 56.7842 44.1821V47.4321C56.7842 48.0965 56.854 48.5938 56.9937 48.9238V49H56.1812ZM53.7944 48.4541C54.3022 48.4541 54.755 48.3314 55.1528 48.0859C55.5549 47.8405 55.8468 47.5125 56.0288 47.1021V45.5913H54.6704C53.9129 45.5998 53.3205 45.7394 52.8931 46.0103C52.4657 46.2769 52.252 46.645 52.252 47.1147C52.252 47.4998 52.3937 47.8193 52.6772 48.0732C52.965 48.3271 53.3374 48.4541 53.7944 48.4541ZM63.2334 48.1304C62.7764 48.7948 62.0464 49.127 61.0435 49.127C60.3114 49.127 59.7549 48.9154 59.374 48.4922C58.9932 48.0648 58.7985 47.4342 58.79 46.6006V42.1318H59.5454V46.5054C59.5454 47.813 60.0744 48.4668 61.1323 48.4668C62.2326 48.4668 62.9287 48.0119 63.2207 47.1021V42.1318H63.9824V49H63.2461L63.2334 48.1304ZM66.6865 42.1318L66.7119 43.3062C66.9701 42.883 67.2917 42.5614 67.6768 42.3413C68.0618 42.117 68.4871 42.0049 68.9526 42.0049C69.689 42.0049 70.237 42.2122 70.5967 42.627C70.9564 43.0417 71.1383 43.6637 71.1426 44.4932V49H70.3872V44.4868C70.383 43.8732 70.2518 43.4162 69.9937 43.1157C69.7397 42.8153 69.3314 42.665 68.7686 42.665C68.2988 42.665 67.882 42.8132 67.5181 43.1094C67.1584 43.4014 66.8918 43.797 66.7183 44.2964V49H65.9629V42.1318H66.6865ZM72.8057 45.5024C72.8057 44.436 73.0426 43.5876 73.5166 42.957C73.9948 42.3223 74.6423 42.0049 75.459 42.0049C76.3857 42.0049 77.0924 42.3709 77.5791 43.103V39.25H78.3345V49H77.6235L77.5918 48.0859C77.1051 48.7799 76.39 49.127 75.4463 49.127C74.6549 49.127 74.016 48.8096 73.5293 48.1748C73.0469 47.5358 72.8057 46.6746 72.8057 45.5913V45.5024ZM73.5737 45.6357C73.5737 46.5117 73.7493 47.2036 74.1006 47.7114C74.4518 48.215 74.9469 48.4668 75.5859 48.4668C76.5212 48.4668 77.1855 48.0542 77.5791 47.229V44.0044C77.1855 43.1115 76.5254 42.665 75.5986 42.665C74.9596 42.665 74.4624 42.9168 74.1069 43.4204C73.7515 43.9198 73.5737 44.6582 73.5737 45.6357ZM83.5078 42.7793C83.347 42.7497 83.1756 42.7349 82.9937 42.7349C82.5197 42.7349 82.1177 42.8682 81.7876 43.1348C81.4618 43.3971 81.229 43.7801 81.0894 44.2837V49H80.334V42.1318H81.0767L81.0894 43.2236C81.4914 42.4111 82.1367 42.0049 83.0254 42.0049C83.237 42.0049 83.4041 42.0324 83.5269 42.0874L83.5078 42.7793ZM87.0054 47.9082L89.0112 42.1318H89.8301L86.8975 50.168L86.7451 50.5234C86.3685 51.3571 85.7866 51.7739 84.9995 51.7739C84.8175 51.7739 84.6229 51.7443 84.4155 51.6851L84.4092 51.0566L84.8027 51.0947C85.1751 51.0947 85.4756 51.0016 85.7041 50.8154C85.9368 50.6335 86.1336 50.3182 86.2944 49.8696L86.6309 48.9429L84.041 42.1318H84.8726L87.0054 47.9082Z" fill="black"/>
</svg>
